<svg width="1920" height="130" viewBox="0 0 1920 130" fill="none" xmlns="http://www.w3.org/2000/svg">
<mask id="mask0_73_6438" style="mask-type:alpha" maskUnits="userSpaceOnUse" x="0" y="0" width="1920" height="130">
<rect width="1920" height="130" fill="white"/>
</mask>
<g mask="url(#mask0_73_6438)">
<path d="M-71 49.0111C3.27755 42.856 -32.198 31.8655 42.3936 30.1194C206.584 6.13519 420.023 49.4131 558.705 49.9146C686.901 50.3783 945.974 66.3422 945.974 66.3422C945.974 66.3422 1097.68 68.8548 1172.47 72.0097C1349.41 79.4734 1525.26 42.6228 1700 22.963C1749.94 17.3444 1881.8 42.3815 1931.35 33.6983C1969.26 27.0574 1932.3 -9.86496 1970.16 -1.25721C1985.95 2.33446 1995.22 15.6275 2001.8 25.2485C2021.03 32.6596 2041.01 37.9747 2060.8 43.4831C2069.3 45.8494 2078.83 43.9902 2086.97 47.547C2088.49 48.2141 2072.62 49.9359 2071.58 50.0111C2027.29 53.2311 1986.37 48.7778 1942 48.4831C1866.08 47.979 1786.43 56.54 1710.5 55.9251C1670.25 55.599 1629.8 45.8851 1589.54 46.1363C1568.42 46.2681 1553.23 68.7303 1532.31 72.0097C1493.77 90.9436 1449.02 75.6427 1411.36 85.6024C1216.68 113.982 1068.42 148.146 893.084 139.691C824.045 136.362 756.219 117.438 688.024 107C660.737 102.824 628.786 110.567 601.371 107.493C572.075 104.208 547.165 93.7951 517.775 93.2834C420.82 91.5955 333.039 113.982 236.987 107C194.933 107 143.032 92.939 101.073 90.4086C73.2559 88.7311 44.8307 86.6976 17.4153 92.5442C5.00511 95.1908 -7.34385 98.6866 -19.616 102.319C-23.2276 103.387 -34.7991 108.145 -37.8542 103.715C-41.7733 98.0315 -37.8964 87.6384 -33.5722 83.6733C-24.2793 75.152 -7.74142 58.7534 3.93495 56.4857C17.4599 53.8588 28.6985 50.4896 42.3936 50.4896C90.2442 50.4896 130.313 52.6343 178.149 53.4466C274.135 55.0765 383.691 62.8159 479.264 74.1453C541.179 81.4848 585.949 92.5442 663.442 91.8871C699.727 94.6485 735.338 102.236 771.84 102.236C877.821 102.236 977.717 94.1665 1083.54 85.6024C1181.89 77.6441 1245.96 89.994 1344.68 85.6024C1379.97 84.0327 1452.58 71.6884 1487.96 71.8193C1511.03 71.9046 1558.2 82.8392 1581.14 79.806C1612.27 75.6892 1657.6 82.5186 1688.5 76.8114C1731.04 68.9547 1764.86 36.9346 1804.5 27.2485C1856.67 14.5009 1899.5 16.1352 1930.35 23.0008C1974.79 32.8878 1958.74 21.2485 1979.67 19.7701C2011.6 26.186 2039.44 31.5869 2066.27 51.9003C2076.35 59.5303 2102.05 76.2934 2081.02 85.1414C2041.86 101.622 1992.05 96.8871 1950.74 96.8871C1896.32 96.8871 1846.45 90.2716 1792.14 95.0585C1731.5 100.405 1687.82 110.472 1629.5 127.014C1488.65 166.962 1334.29 95.5415 1189.44 93.2834C1081.99 91.6083 1009.28 121.645 902.087 113.982C824.874 108.462 717.705 143.112 640.438 139.691C598.482 137.834 570.245 109.713 528.48 104.536C504.955 101.62 453.417 129.37 430.194 124.496C409.055 120.059 388.24 113.155 367.508 107C335.209 97.4123 317.204 80.272 283.691 79.3462C256.766 78.6025 211.262 95.5746 184.48 98.9486C158.538 102.217 134.873 99.7624 109.161 104.536C90.9842 107.911 72.2945 106.326 54.0502 108.972C18.4674 114.132 -16.3823 122.935 -52.4447 122.935C-59.8256 122.935 -64.7852 124.603 -58.5505 116.775C-51.1421 107.473 -42.4445 98.2 -32.462 91.8871C-10.5995 78.0611 15.5556 74.1453 40.6491 74.1453C79.7751 74.1453 118.857 73.6308 157.77 78.5808C221.292 86.6614 286.169 93.9995 350.222 93.3656C411.772 92.7564 468.717 75.3422 528.48 63.4674C576.151 53.9951 620.924 49.389 669.31 56.4857C722.167 64.2381 774.925 82.2157 827.551 91.8871C878.388 101.23 928.676 99.8921 979.834 107.493C1027.45 114.568 1103.53 116.204 1150.72 107C1200.6 97.2709 1219.97 101.087 1270.66 101.087C1316.66 101.087 1365.68 95.3595 1411.36 101.087C1445.47 105.362 1474.61 97.801 1508.9 97.801C1536.84 97.801 1570.3 100.409 1598 95.0585C1629.1 89.0516 1669.81 100.989 1700 91.2834C1724.99 83.2491 1743.1 86.2067 1769 82.1414C1802.6 76.8677 1823.24 69.4766 1856.67 73.2314C1867.53 74.4517 1907.59 74.7147 1918.35 76.8193C1931.39 79.3665 1949.18 79.1617 1962.16 81.8114C1976.81 84.8045 2001.18 71.3422 2016.02 71.3422C2038.84 71.3422 2020.69 71.5579 2043.36 68.7959C2059 66.8898 2074.76 64.3605 2090.54 64.3605C2094.9 64.3605 2107.41 62.1191 2103.62 64.3605C2089.55 72.6879 2070.62 76.3509 2055.57 82.2665C2025.04 94.2587 1993 100.152 1962.16 111.229C1931.65 122.183 1924.84 117.64 1892.5 120.021C1881.12 120.859 1852.52 116.778 1841.76 113.993C1812.22 106.345 1776.19 122.286 1746 121.021C1686.67 118.536 1647.74 105.19 1574.5 113.982C1541.64 113.982 1505.45 111.032 1473.19 117.021C1439.09 123.352 1371.99 110.828 1337.48 113.982C1302.4 117.188 1290.52 139.691 1255.24 139.691C1149.21 139.691 1051.81 137.692 945.974 131.806C883.184 128.314 820.373 125.376 757.487 124.496C703.29 123.737 649.691 113.982 589.548 118.5C528.48 126.221 505.414 109.849 463.607 109.629C420.79 109.404 386.694 119.65 343.834 119.65C289.627 119.65 232.283 112.269 178.149 118.5C156.464 120.995 138.499 118.457 116.626 119.65C92.8358 120.947 77.8236 117.891 54.0502 119.65C40.7284 120.635 15.8793 130.328 2.50762 130.328C-0.943351 130.328 -3.57359 127.898 -6.45285 126.221C-10.4638 123.884 -17.5991 123.213 -20.7262 119.65C-22.3324 117.82 -23.9296 112.143 -25.0082 109.629C-27.4996 103.822 -26.0855 100.752 -23.1051 95.419C-17.9243 86.1497 -5.11343 79.3242 3.93495 74.8845C13.8912 69.9994 40.6491 66.3422 63.6798 63.4674C104.461 63.4674 113.443 62.3175 157.77 66.3422C178.645 67.3719 232.307 71.3978 280.093 70.3623C567.958 64.1245 658.896 86.4763 865.59 85.6024C969.825 85.1617 1046.82 70.5962 1150.72 62.3175C1253.24 54.1482 1363.55 59.6513 1466.38 59.9982C1559.56 60.3126 1632.32 66.2664 1725.5 68.3422C1751.31 68.9171 1795.78 59.6314 1819.9 70.3386C1830.07 74.8525 1839.26 82.2448 1848.76 88.0162C1857.29 93.1916 1876 100.065 1885.46 102.801C1901.88 107.554 1914.95 114.212 1931.72 111.229C1967.62 104.844 2000.69 93.562 2036.69 87.1127C2054.87 83.8574 2072.07 78.1181 2089.82 73.2314C2099.75 70.4994 2112.73 67.193 2120.75 59.925C2132.59 49.1965 2116.82 34.3989 2108.46 28.6983C2108.44 19.2379 2100.43 18.0318 2091 17.963C2062.68 17.7564 2026.15 59.1874 1998 62.1037C1914.84 70.7172 1834.78 38.663 1751.39 43.1833C1668.75 47.6621 1582.72 41.9011 1500.18 47.8612C1413.34 54.1309 1322.7 54.1037 1235.7 54.1037C1170.37 54.1037 1109.29 48.4276 1043.96 49.9146C969.541 51.6089 894.879 62.5307 820.448 64.1245C720.486 66.265 621.105 63.4061 521.502 54.1037C469.608 49.2571 417.731 44.651 365.605 43.0972C342.296 42.4024 318.977 40.2701 295.666 40.1402C276.024 40.0309 256.469 39.4794 236.987 36.5262C211.889 32.7217 189.219 42.0736 163.919 40.1402C135.302 37.9536 110.581 10.434 82.1854 6.13519C48.5367 1.04107 17.4153 6.13519 -11.8848 15.0061C-26.1315 15.0061 -46.6368 33.9699 -58.5505 40.1402" stroke="#B7EC5D" stroke-width="2" stroke-linecap="round"/>
</g>
</svg>
