<svg width="140" height="140" viewBox="0 0 140 140" fill="none" xmlns="http://www.w3.org/2000/svg">
<path d="M32.2158 92.7849C33.807 94.5848 37.064 99.4962 42.8388 102.884C47.0091 105.33 50.301 106.453 55.4121 107.669C62.4685 109.348 67.8268 108.854 73.9589 108.662C80.5079 108.457 82.8997 105.351 89.1425 103.341C91.118 102.705 93.2034 101.975 94.9794 100.886C97.2727 99.4783 99.2495 95.1507 101.291 93.4103C105.528 89.7982 109.179 85.2878 110.776 79.9067C113.024 72.3335 113.625 61.4052 113.023 53.511C112.68 49.0131 110.526 45.2867 108.657 41.3045C107.684 39.2331 106.694 37.1631 105.217 35.3981C104.057 34.0116 102.67 32.8514 101.395 31.5763C99.282 29.463 96.847 26.9934 94.493 25.233C91.656 21.9564 86.894 20.8771 83.555 19.5814C75.8728 16.6002 67.4696 14.9132 59.1535 16.7872C53.9676 17.9559 48.6984 20.4413 44.0402 22.9368C39.1748 25.5433 34.9565 29.24 31.1735 33.244C27.6174 37.008 26.3651 41.0554 23.4891 45.3695C22.0727 47.4941 20.5128 54.2416 20.5128 56.8804C20.5128 63.6727 19.7441 69.0489 21.816 75.4827C23.1147 79.5155 25.1002 83.212 27.5023 86.6585C28.9532 88.7402 30.5328 90.8812 32.2158 92.7849Z" stroke="#B7EC5D" stroke-width="2.5" stroke-linecap="round"/>
<path d="M95.5413 95.6855C98.4422 99.4567 101.772 100.647 104.459 104.574C105.743 106.452 110.384 112.105 112.339 113.309C114.61 114.706 116.287 117.973 119.114 120.301" stroke="#B7EC5D" stroke-width="2.5" stroke-linecap="round"/>
<path d="M77.594 27.3027C79.4731 27.6685 81.3555 28.0267 83.1563 28.7522C85.3903 29.6523 87.3708 31.0914 89.37 32.4975C92.2609 34.5308 95.2121 36.755 97.3579 39.787C100.402 44.0878 102.603 47.9394 103.756 53.8685C104.702 58.7391 104.737 63.3802 103.756 66.5739" stroke="#B7EC5D" stroke-width="2.5" stroke-linecap="round"/>
<path d="M37.426 85.0547C40.3347 91.2008 46.2391 94.2199 52.0576 97.2882" stroke="#B7EC5D" stroke-width="2.5" stroke-linecap="round"/>
</svg>
