<svg width="140" height="140" viewBox="0 0 140 140" fill="none" xmlns="http://www.w3.org/2000/svg">
<path d="M17.8973 42.2716C21.2028 43.1178 22.1265 43.5723 25.0593 43.5723H47.0189C67.1022 43.5723 89.5156 43.9242 107.696 43.5723C114.329 43.4438 118.962 44.1761 124.223 41.1697C126.179 40.0522 128.077 37.0964 129.181 35.1097C130.391 32.9321 130.808 29.873 129.966 26.6729C129.024 23.0934 126.834 19.9659 123.672 18.5824C118.535 16.3352 117.924 17.1843 113.756 16.6737C108.844 16.072 104.735 16.7564 101.085 16.7564H92.8207C91.3333 16.7564 88.2136 16.6737 88.2136 16.6737C88.2136 16.6737 78.4404 16.3845 73.6695 16.3845C68.1405 16.3845 62.5234 16.3787 57.012 16.3787C46.5387 16.3787 36.5998 15.5266 26.161 16.3787C20.1295 16.8711 15.2647 16.9713 11.8374 21.8878C9.44848 25.3147 9.08273 29.0498 9.6337 32.3552C10.2413 36.0006 11.8373 37.8643 14.1499 40.0395C14.7658 40.6189 15.3852 41.3566 17.8973 42.2716Z" stroke="#B7EC5D" stroke-width="2.5" stroke-linecap="round"/>
<path d="M22.8557 40.3027C22.708 46.6555 22.8419 58.072 22.8419 64.4318C22.8419 71.7728 22.8419 79.1137 22.8419 86.4547C22.8419 90.924 22.8419 95.3933 22.8419 99.8626C22.8419 103.911 22.5759 111.245 24.5417 116.094C27.6074 123.656 34.6737 123.511 41.2895 123.511C50.5931 123.511 59.8967 123.511 69.2003 123.511C74.4607 123.511 79.7266 123.883 85.0047 123.883C90.4346 123.883 99.3066 124.95 104.39 123.256C110.135 121.341 113.391 120.11 115.408 116.094C116.793 113.339 117.544 102.224 117.164 96.2612C116.872 91.669 117.028 87.9876 117.164 84.4783C117.559 74.2948 117.064 67.1636 117.522 58.4475C117.662 55.8026 117.019 53.9924 117.164 51.3682C117.3 48.9218 116.793 41.7082 116.793 39.3027" stroke="#B7EC5D" stroke-width="2.5" stroke-linecap="round"/>
<path d="M55.9294 70.9037C57.1749 70.837 59.314 70.9948 61.4306 70.6091C64.1624 70.1113 65.6913 70.3807 68.032 70.2553C70.5148 70.1223 72.0634 70.1702 75.1836 69.8723C80.1236 69.4008 80.4168 69.7574 83.4442 69.5952" stroke="#B7EC5D" stroke-width="2.5" stroke-linecap="round"/>
</svg>
