<svg width="140" height="140" viewBox="0 0 140 140" fill="none" xmlns="http://www.w3.org/2000/svg">
<path d="M22.0571 12.4497C23.3897 11.0975 27.3055 9.85066 30.0895 9.27763C33.473 8.5812 37.1868 8.79672 40.632 8.83179C50.3019 8.93023 63.6079 8.78722 73.2636 8.83178C91.2312 8.9147 94.1866 8.05573 104.891 9.27763C115.596 10.4995 117.736 11.7005 122.467 17.419C125.474 21.0532 126.305 31.474 126.305 35.034V72.6746C126.305 83.8705 126.98 90.4195 125.976 105.476C125.339 109.861 125.496 115.414 123.466 119.28C119.649 126.549 109.409 130.211 104.891 130.211H79.7899C66.8103 130.211 60.713 131.286 47.6604 131.286C37.9108 131.286 31.8379 132.176 25.5713 128.598C19.9386 125.382 17.5389 122.683 14.5268 115.692C12.6731 111.391 13.1066 105.221 12.9993 103.325C12.6677 97.4641 13.1783 92.0674 12.9666 86.1717C12.4731 72.4258 12.1979 58.4031 12.9993 44.6682C13.5373 35.4483 12.2062 28.3163 15.9875 19.9778C17.3264 15.676 20.7364 13.7899 22.0571 12.4497Z" stroke="#B7EC5D" stroke-width="2.5" stroke-linecap="round"/>
<path d="M8 100.636C18.0405 89.9465 24.3907 80.6421 31.04 74.8218C33.7043 72.4898 36.6642 70.634 39.5746 68.692C40.9639 67.765 42.4043 66.8967 44.016 66.5332C45.5391 66.1898 47.1386 65.7111 48.6814 66.3467C51.5019 67.5086 53.6106 70.5957 55.4618 73.0095C57.7258 75.9617 59.7103 79.5336 61.1722 83.0038C62.4308 85.9914 64.2267 89.9465 64.2267 89.9465C64.2267 89.9465 67.5687 95.2586 68.7449 96.8226C69.3019 97.5632 72.5017 98.2443 73.2632 97.9477C76.6962 96.6106 76.7751 96.8085 79.2875 94.1174C80.284 93.05 82.7413 89.9465 84.8097 87.731C86.3158 86.1178 88.505 84.0366 90.8316 82.7906C93.0767 81.5882 96.0472 81.7048 98.3644 82.7906C101.602 84.3078 103.226 86.0187 105.761 88.7339C108.578 91.7509 111.815 94.5458 115.191 96.8226C116.424 97.6543 117.9 98.4279 119.259 99.0213C120.245 99.4516 120.955 99.5609 123.968 100.636C127.084 101.749 128.5 103.385 132 103.863" stroke="#B7EC5D" stroke-width="2.5" stroke-linecap="round"/>
<path d="M78.9387 42.3295C77.7432 44.0368 77.334 46.4893 77.2789 49.2967C77.2377 51.3993 78.0288 54.6216 78.0288 54.6216C78.3143 56.3035 81.4702 59.8159 82.9152 60.3076C84.5561 60.8658 86.1122 62.0229 87.8211 62.156C90.373 62.3548 92.7922 62.7052 94.8495 61.3831C99.8697 58.1567 101.101 55.2912 101.376 49.5532C101.522 46.5053 100.591 44.5412 98.8657 42.0249C96.1276 38.0311 92.8414 36.6478 88.2815 36.3276C85.9331 36.1627 83.7024 37.0765 81.7968 38.7987C80.4711 39.9969 79.9754 40.8489 78.9387 42.3295Z" stroke="#B7EC5D" stroke-width="2.5" stroke-linecap="round"/>
</svg>
