<svg width="140" height="140" viewBox="0 0 140 140" fill="none" xmlns="http://www.w3.org/2000/svg">
<path d="M15 39.8833C17.5 39.8833 20.5 39.7924 20.5 39.7924C20.5 39.7924 29.872 39.5742 34.0063 39.5742C39.9053 39.5742 45.8044 39.5742 51.7035 39.5742C56.1682 39.5742 62.6329 39.5742 67.0976 39.5742C75.7673 39.5742 78.4247 39.7924 87.0858 39.7924C100.603 39.7924 112.436 39.8832 126 39.8832" stroke="#B7EC5D" stroke-width="2.5" stroke-linecap="round"/>
<path d="M48.0752 39C48.0752 33.3427 47.906 26.7393 48.0752 21.0968C48.1078 20.0094 48.4693 18.9773 48.5114 17.9076C48.5661 16.5158 48.9123 16.8415 51.4741 16.4087C53.5724 15.8274 55.7756 16.0367 57.9681 16.0367C61.4896 16.0367 64.9903 16.0123 68.4966 16.2174C70.0828 16.3102 71.6934 16.2102 73.2823 16.228C74.9405 16.2467 76.5969 16.5518 78.2618 16.6214C80.484 16.7142 82.6812 16.8021 84.9133 16.8021C87.1525 16.8021 90.3764 16.4928 92.5526 16.4194C93.8768 16.3747 93.5943 21.7948 93.6794 22.9146C93.9248 26.1444 94 30.2186 94 33.4509C94 35.3088 93.7819 41.1797 93.7819 43" stroke="#B7EC5D" stroke-width="2.5" stroke-linecap="round"/>
<path d="M30 35C30 36.1871 30.2187 43.3205 30.2187 44.5345C30.2187 46.8984 30.1856 49.5525 30.5467 51.893C31.4233 57.5754 30.8747 63.5893 30.8747 69.3172C30.8747 71.8369 31.2303 74.353 31.3242 76.8726C31.4959 81.4807 32.2162 85.3052 32.5147 90.7282C32.8968 97.6671 32.3462 101.587 32.7942 108.522C33.1104 113.417 33.7904 120.39 34.9019 122.131C36.0134 123.872 43.3799 123.762 44.4688 123.762C48.0403 122.857 55.1129 123.762 58.9316 123.762C66.8081 123.762 71.848 123.261 79.6994 123.872C84.4124 124.24 89.051 123.716 93.7309 123.54C96.6568 123.43 102.98 124.357 105.669 123.146C107.679 122.241 107.799 117.622 107.799 113.001C107.799 108.991 107.953 105.124 108.145 101.809C108.579 94.3379 108.899 88.7109 109.378 80.318C109.979 69.8038 110.056 62.6519 110.179 53.6668C110.231 49.8878 111 43.8477 111 40.0923" stroke="#B7EC5D" stroke-width="2.5" stroke-linecap="round"/>
<path d="M58.6807 65.4473C58.6807 68.815 59.2792 72.1775 59.5534 75.5322C60.0362 81.4398 59.9898 87.4023 59.9898 93.3264C59.9898 97.933 60.208 102.514 60.208 107.121" stroke="#B7EC5D" stroke-width="2.5" stroke-linecap="round"/>
<path d="M80.9521 67.1855C80.4987 76.9134 80.4748 86.6247 80.2479 96.3484C80.2084 98.0434 80.5278 99.7148 80.4468 101.454" stroke="#B7EC5D" stroke-width="2.5" stroke-linecap="round"/>
</svg>
