<svg width="156" height="156" viewBox="0 0 156 156" fill="none" xmlns="http://www.w3.org/2000/svg">
<g filter="url(#filter0_d_73_7059)">
<circle cx="78" cy="74" r="67" fill="#B7EC5D" stroke="#333333" stroke-width="2"/>
<path d="M72.2 52.6591C72.8459 47.6538 72.1627 42.8045 73.0643 37.8457C73.5607 36.3566 78.0278 36.8528 78.0278 36.8528C78.0278 36.8528 81.4729 37.3493 82.495 37.3493C83.6642 37.3493 82.9339 47.5016 82.9913 48.7656C83.2243 53.8908 83.3805 55.5021 83.3805 60.6436C83.3805 64.1819 83.18 66.6342 83.3805 68.5389C83.3805 69.6123 88.4808 69.5603 89.4439 69.6123C92.8447 69.7962 95.6529 69.9421 99.2491 69.9421C102.845 69.9421 105.68 69.7601 109.794 69.9421C112.12 70.0449 113.587 69.581 114.851 69.9421C115.34 70.082 115.254 74.5758 115.254 74.5758C115.254 74.5758 114.9 78.1452 114.851 79.9644C114.835 80.5251 114.864 80.9666 114.149 80.9666C107.223 80.9666 100.271 81.1452 93.3471 80.9555C92.1535 80.9228 83.3805 79.3765 83.3805 80.6771C83.3805 82.6381 83.5916 84.7265 83.2802 86.657C83.0315 88.199 83.18 89.8302 83.18 91.3898C83.18 93.2583 83.5608 94.5717 83.2802 96.4153C83.3805 98.31 82.7903 100.993 83.18 104.853C83.3805 106.839 83.6533 109.97 82.7903 110.833C82.2495 111.374 79.302 110.833 78.592 110.833C77.78 110.833 77.0104 111.034 76.1867 111.034C75.7049 111.034 72.6647 111.347 73.0643 110.388C73.3187 109.777 73.1645 108.848 73.1645 108.183C73.1645 106.122 72.9275 103.92 73.1645 101.875C73.5682 98.3939 72.7283 94.8761 73.0643 91.3898C73.4212 87.6876 73.1645 84.4013 73.1645 80.6771C73.1645 79.8525 72.3089 79.3185 71.4051 79.3185H67.8022C62.1897 79.3185 59.6833 79.363 54.0708 79.363C51.7768 79.363 53.1621 79.3185 50.8681 79.3185H43.2832C42.6342 79.3185 41.3151 79.1483 41.1451 78.8508C40.8476 78.3301 40.7099 77.7626 40.8014 77.0576C41.0019 75.5126 40.9678 73.39 41.0019 71.5456C41.0109 71.0615 40.8661 68.9398 41.503 68.9398H47.5574C49.7132 68.9398 52.6454 68.7394 57.7234 68.7394C62.3095 68.7394 67.0091 69.0439 71.5542 68.5389C72.4266 68.442 71.955 63.9746 71.955 63.3051C71.955 59.8085 71.7527 56.1261 72.2 52.6591Z" stroke="#4D4D4D" stroke-width="2.5" stroke-linecap="round"/>
</g>
<defs>
<filter id="filter0_d_73_7059" x="0" y="0" width="156" height="156" filterUnits="userSpaceOnUse" color-interpolation-filters="sRGB">
<feFlood flood-opacity="0" result="BackgroundImageFix"/>
<feColorMatrix in="SourceAlpha" type="matrix" values="0 0 0 0 0 0 0 0 0 0 0 0 0 0 0 0 0 0 127 0" result="hardAlpha"/>
<feOffset dy="4"/>
<feGaussianBlur stdDeviation="5"/>
<feComposite in2="hardAlpha" operator="out"/>
<feColorMatrix type="matrix" values="0 0 0 0 0 0 0 0 0 0 0 0 0 0 0 0 0 0 0.25 0"/>
<feBlend mode="normal" in2="BackgroundImageFix" result="effect1_dropShadow_73_7059"/>
<feBlend mode="normal" in="SourceGraphic" in2="effect1_dropShadow_73_7059" result="shape"/>
</filter>
</defs>
</svg>
