<svg width="136" height="136" viewBox="0 0 136 136" fill="none" xmlns="http://www.w3.org/2000/svg">
<circle cx="68" cy="68" r="67" fill="#4D4D4D" stroke="#B7EC5D" stroke-width="2"/>
<path d="M62.2 46.6591C62.8459 41.6538 62.1627 36.8045 63.0643 31.8457C63.5607 30.3566 68.0278 30.8528 68.0278 30.8528C68.0278 30.8528 71.4729 31.3493 72.495 31.3493C73.6642 31.3493 72.9339 41.5016 72.9913 42.7656C73.2243 47.8908 73.3805 49.5021 73.3805 54.6436C73.3805 58.1819 73.18 60.6342 73.3805 62.5389C73.3805 63.6123 78.4808 63.5603 79.4439 63.6123C82.8447 63.7962 85.6529 63.9421 89.2491 63.9421C92.8453 63.9421 95.6801 63.7601 99.7943 63.9421C102.12 64.0449 103.587 63.581 104.851 63.9421C105.34 64.082 105.254 68.5758 105.254 68.5758C105.254 68.5758 104.9 72.1452 104.851 73.9644C104.835 74.5251 104.864 74.9666 104.149 74.9666C97.2232 74.9666 90.271 75.1452 83.3471 74.9555C82.1535 74.9228 73.3805 73.3765 73.3805 74.6771C73.3805 76.6381 73.5916 78.7265 73.2802 80.657C73.0315 82.199 73.18 83.8302 73.18 85.3898C73.18 87.2583 73.5608 88.5717 73.2802 90.4153C73.3805 92.31 72.7903 94.9927 73.18 98.8532C73.3805 100.839 73.6533 103.97 72.7903 104.833C72.2495 105.374 69.302 104.833 68.592 104.833C67.78 104.833 67.0104 105.034 66.1867 105.034C65.7049 105.034 62.6647 105.347 63.0643 104.388C63.3187 103.777 63.1645 102.848 63.1645 102.183C63.1645 100.122 62.9275 97.9198 63.1645 95.8751C63.5682 92.3939 62.7283 88.8761 63.0643 85.3898C63.4212 81.6876 63.1645 78.4013 63.1645 74.6771C63.1645 73.8525 62.3089 73.3185 61.4051 73.3185H57.8022C52.1897 73.3185 49.6833 73.363 44.0708 73.363C41.7768 73.363 43.1621 73.3185 40.8681 73.3185H33.2832C32.6342 73.3185 31.3151 73.1483 31.1451 72.8508C30.8476 72.3301 30.7099 71.7626 30.8014 71.0576C31.0019 69.5126 30.9678 67.39 31.0019 65.5456C31.0109 65.0615 30.8661 62.9398 31.503 62.9398H37.5574C39.7132 62.9398 42.6454 62.7394 47.7234 62.7394C52.3095 62.7394 57.0091 63.0439 61.5542 62.5389C62.4266 62.442 61.955 57.9746 61.955 57.3051C61.955 53.8085 61.7527 50.1261 62.2 46.6591Z" stroke="#B7EC5D" stroke-width="2.5" stroke-linecap="round"/>
</svg>
