<svg width="42" height="40" viewBox="0 0 42 40" fill="none" xmlns="http://www.w3.org/2000/svg">
<path fill-rule="evenodd" clip-rule="evenodd" d="M18.2094 18.1686C17.5575 18.6987 16.6945 19.5765 15.8179 20.7997C14.6648 22.4088 13.6159 24.4401 13.0443 26.6919C12.6576 28.2151 11.0094 29.16 9.36293 28.8023C7.71644 28.4446 6.69513 26.9197 7.08179 25.3965C7.84095 22.4058 9.21437 19.7601 10.7133 17.6686C12.1793 15.623 13.9 13.9218 15.5025 12.9698C17.3352 11.8809 19.9115 11.4479 22.0267 13.0733C23.8182 14.45 24.3579 16.6733 24.3579 18.6946C24.3579 19.5499 24.2314 20.3492 24.1079 21.0022C24.0477 21.3203 23.9957 21.5722 23.9493 21.7971C23.92 21.9392 23.8929 22.0705 23.8674 22.2009C24.3219 21.7141 24.8286 21.0979 25.3669 20.3657C26.3961 18.9658 27.3471 17.4138 28.051 16.1882C28.3999 15.5807 28.6816 15.0647 28.8748 14.7032C28.9713 14.5226 29.0454 14.3811 29.0944 14.2866C29.1189 14.2394 29.1371 14.204 29.1487 14.1813L29.1611 14.1571L29.1633 14.1528C29.1634 14.1526 29.1632 14.153 29.1633 14.1528C29.8804 12.736 31.7033 12.1245 33.235 12.7876C34.7668 13.4509 35.4274 15.1373 34.7106 16.5545L31.9369 15.3536C34.7106 16.5545 34.7103 16.5549 34.7101 16.5554L34.7023 16.5709L34.6835 16.6076C34.6676 16.6387 34.6448 16.6829 34.6156 16.7392C34.5572 16.8517 34.4728 17.0127 34.3652 17.2142C34.1502 17.6166 33.8411 18.1826 33.4596 18.8468C32.7028 20.1646 31.6348 21.9152 30.4313 23.5523C29.286 25.1101 27.798 26.8758 26.1425 27.9342C25.3072 28.4683 24.0902 29.0434 22.6306 28.9974C20.992 28.9457 19.7032 28.1415 18.8392 27.0678C17.3456 25.2117 17.515 23.1565 17.7214 21.8604C17.7856 21.457 17.8859 20.964 17.9699 20.5512C18.0108 20.3505 18.0478 20.1687 18.0749 20.0255C18.1782 19.479 18.2332 19.0589 18.2332 18.6946C18.2332 18.4969 18.2242 18.322 18.2094 18.1686ZM22.4659 23.3799C22.4659 23.3797 22.4702 23.3778 22.4786 23.375C22.4701 23.3787 22.4659 23.3801 22.4659 23.3799Z" fill="black"/>
<path d="M37.0112 18.628C36.7842 19.0528 36.4602 19.6459 36.0611 20.3408C35.2752 21.7092 34.1445 23.5662 32.8483 25.3293C31.664 26.9403 29.9056 29.089 27.7584 30.4618C26.6661 31.1601 24.8431 32.0687 22.536 31.9959C19.8896 31.9124 17.8253 30.5932 16.5019 28.9486C16.2332 28.6147 16.0002 28.277 15.7985 27.9386C14.7659 30.8719 11.6043 32.3592 8.72602 31.7339C5.62678 31.0605 3.31955 28.0245 4.17401 24.6584C5.03906 21.2505 6.59311 18.2677 8.27482 15.9211C9.89374 13.6621 11.9007 11.6202 13.9701 10.3907C16.4332 8.92729 20.4254 8.05946 23.8546 10.6945C24.8853 11.4865 25.6277 12.4295 26.1559 13.4253C26.1815 13.3776 26.2059 13.3323 26.2288 13.2893L26.7648 13.5757M37.0112 18.628L26.4871 12.7971C26.487 12.7973 26.4869 12.7975 26.4868 12.7977C26.4867 12.7978 26.4867 12.7979 26.4866 12.798L26.4862 12.7989L26.4786 12.8137C26.4784 12.8141 26.4781 12.8146 26.4779 12.815C26.4686 12.8333 26.453 12.8635 26.4317 12.9046C26.3877 12.9893 26.3192 13.1201 26.2288 13.2893L26.7648 13.5757M37.0112 18.628C37.1248 18.4152 37.2148 18.2436 37.2783 18.1212L37.0112 18.628ZM26.7648 13.5757C27.2281 14.4912 27.8612 15.0365 28.523 15.3503C28.5231 15.3501 28.5232 15.35 28.5233 15.3498C27.7117 14.8913 27.1777 14.1804 26.8602 13.6267M26.7648 13.5757L26.8602 13.6267M26.7648 13.5757C26.7648 13.5757 26.7648 13.5757 26.7648 13.5757M26.8602 13.6267L28.7436 14.633L26.8602 13.6267M26.8602 13.6267C26.8602 13.6267 26.8602 13.6267 26.8602 13.6267M26.8602 13.6267C26.6992 13.3459 26.5939 13.1055 26.5363 12.959C26.5098 12.8915 26.4934 12.8439 26.4863 12.8214L26.4772 12.8168C26.4728 12.8258 26.467 12.8376 26.4617 12.8483C26.4717 12.8779 26.4819 12.9071 26.4922 12.9361C26.5744 13.1671 26.6657 13.3799 26.7648 13.5757M26.8602 13.6267L26.7648 13.5757M37.3832 17.9172L37.3771 17.9292L37.374 17.9354L37.3552 17.9721L37.3536 17.9752C37.3354 18.0109 37.3101 18.0599 37.2784 18.1211L37.3832 17.9172ZM37.3832 17.9172C37.3838 17.9161 37.3844 17.9149 37.385 17.9137L37.3832 17.9172ZM37.386 17.9118C37.3865 17.9108 37.387 17.9097 37.3875 17.9087C38.9528 14.8144 37.4007 11.3221 34.4269 10.0346C31.5587 8.79277 27.9799 9.85185 26.4881 12.795L26.488 12.7952L26.4879 12.7955L37.386 17.9118ZM26.5209 12.7323C27.9202 12.2975 28.9915 12.5006 29.7932 12.9502C28.2252 12.2128 26.501 12.77 26.4968 12.778L26.4948 12.782C26.4977 12.7763 26.51 12.7527 26.5209 12.7323ZM26.4849 12.8169L26.4788 12.8137C26.4801 12.811 26.4813 12.8087 26.4822 12.8068C26.4822 12.8074 26.483 12.8108 26.4849 12.8169Z" stroke="#B7EC5D" stroke-opacity="0.3" stroke-width="6" stroke-linecap="round" stroke-linejoin="round"/>
<path d="M36.4945 17.4587C36.4947 17.4582 36.495 17.4578 36.4952 17.4573C37.7777 14.9221 36.5227 12.0317 34.0296 10.9523C31.6066 9.90324 28.6127 10.8134 27.3794 13.2485L27.379 13.2494M27.379 13.2494C27.3789 13.2494 27.3789 13.2495 27.3788 13.2496L27.379 13.2494ZM17.9987 17.3218C17.9987 17.3218 17.9994 17.3226 18.0006 17.3245" fill="black" stroke="#B7EC5D" stroke-width="4" stroke-linecap="round" stroke-linejoin="round"/>
<path d="M28.3551 13.9029C28.4532 14.0938 28.6418 14.3783 28.9513 14.5526M28.3551 13.9029L28.9513 14.5526M28.3551 13.9029C28.3182 13.8312 28.2942 13.7728 28.2812 13.7382L28.2673 13.7311M28.3551 13.9029L28.2673 13.7311M28.9513 14.5526C28.7137 14.4403 28.4871 14.2387 28.3302 13.89C28.3078 13.8401 28.2867 13.7872 28.2673 13.7311M28.9513 14.5526L28.2673 13.7311M25.3578 18.6388C25.348 16.4938 24.7675 13.9183 22.636 12.2804C20.0828 10.3184 17.0345 10.8964 14.9917 12.1101C13.2336 13.1546 11.4174 14.9694 9.90045 17.0861C8.34062 19.2626 6.90699 22.0207 6.11253 25.1505C5.56994 27.288 7.01988 29.3166 9.15063 29.7795C11.2617 30.2381 13.4793 29.0427 14.0135 26.9379C14.5498 24.8252 15.5386 22.9062 16.6307 21.3822C16.7014 21.2836 16.7719 21.1875 16.8421 21.0938C16.8022 21.3026 16.7643 21.5115 16.7338 21.7031C16.5171 23.0642 16.2882 25.4928 18.0601 27.6948C19.0772 28.9588 20.6245 29.9346 22.5991 29.9969C24.3412 30.0519 25.7602 29.3656 26.6811 28.7768C28.5006 27.6135 30.0787 25.7201 31.237 24.1447C32.4714 22.4656 33.5603 20.6794 34.3268 19.3448C34.6675 18.7515 34.9515 18.2352 35.164 17.8405L35.1777 17.8465L35.5939 17.0236L35.6017 17.0082L35.602 17.0076L35.6029 17.0059C36.6026 15.0297 35.6448 12.7413 33.6323 11.87C31.6548 11.0138 29.2461 11.7749 28.2711 13.7012L28.2709 13.7015L28.2706 13.7022L28.2704 13.7025L28.2698 13.7037L28.2696 13.7041L28.2587 13.7254C28.2479 13.7466 28.2305 13.7804 28.2068 13.826C28.1595 13.9172 28.0872 14.0551 27.9928 14.2319L28.8748 14.7032L27.9928 14.2319C27.8036 14.586 27.5268 15.0929 27.1838 15.6901L27.9256 16.1162L27.1838 15.6901C26.6785 16.57 26.0483 17.6128 25.3578 18.6388ZM28.2696 13.7042C28.2696 13.7051 28.2732 13.7166 28.2806 13.7367L28.2668 13.7296C28.2654 13.7257 28.2641 13.7218 28.2628 13.7179L28.2696 13.7042ZM29.3722 13.7514C28.8518 13.5072 28.2801 13.6904 28.2745 13.6944L28.2825 13.6793C28.7483 13.5346 29.1051 13.6019 29.3722 13.7514Z" fill="black" stroke="#F93819" stroke-width="2" stroke-linecap="round"/>
<path fill-rule="evenodd" clip-rule="evenodd" d="M18.2094 18.1686C17.5575 18.6987 16.6945 19.5765 15.8179 20.7997C14.6648 22.4088 13.6159 24.4401 13.0443 26.6919C12.6576 28.2151 11.0094 29.16 9.36293 28.8023C7.71644 28.4446 6.69513 26.9197 7.08179 25.3965C7.84095 22.4058 9.21437 19.7601 10.7133 17.6686C12.1793 15.623 13.9 13.9218 15.5025 12.9698C17.3352 11.8809 19.9115 11.4479 22.0267 13.0733C23.8182 14.45 24.3579 16.6733 24.3579 18.6946C24.3579 19.5499 24.2314 20.3492 24.1079 21.0022C24.0477 21.3203 23.9957 21.5722 23.9493 21.7971C23.92 21.9392 23.8929 22.0705 23.8674 22.2009C24.3219 21.7141 24.8286 21.0979 25.3669 20.3657C26.3961 18.9658 27.3471 17.4138 28.051 16.1882C28.3999 15.5807 28.6816 15.0647 28.8748 14.7032C28.9713 14.5226 29.0454 14.3811 29.0944 14.2866C29.1189 14.2394 29.1371 14.204 29.1487 14.1813L29.1611 14.1571L29.1633 14.1528C29.1634 14.1526 29.1632 14.153 29.1633 14.1528C29.8804 12.736 31.7033 12.1245 33.235 12.7876C34.7668 13.4509 35.4274 15.1373 34.7106 16.5545L31.9369 15.3536C34.7106 16.5545 34.7103 16.5549 34.7101 16.5554L34.7023 16.5709L34.6835 16.6076C34.6676 16.6387 34.6448 16.6829 34.6156 16.7392C34.5572 16.8517 34.4728 17.0127 34.3652 17.2142C34.1502 17.6166 33.8411 18.1826 33.4596 18.8468C32.7028 20.1646 31.6348 21.9152 30.4313 23.5523C29.286 25.1101 27.798 26.8758 26.1425 27.9342C25.3072 28.4683 24.0902 29.0434 22.6306 28.9974C20.992 28.9457 19.7032 28.1415 18.8392 27.0678C17.3456 25.2117 17.515 23.1565 17.7214 21.8604C17.7856 21.457 17.8859 20.964 17.9699 20.5512C18.0108 20.3505 18.0478 20.1687 18.0749 20.0255C18.1782 19.479 18.2332 19.0589 18.2332 18.6946C18.2332 18.4969 18.2242 18.322 18.2094 18.1686ZM22.4659 23.3799C22.4659 23.3797 22.4702 23.3778 22.4786 23.375C22.4701 23.3787 22.4659 23.3801 22.4659 23.3799Z" fill="white"/>
</svg>
