<svg width="40" height="40" viewBox="0 0 40 40" fill="none" xmlns="http://www.w3.org/2000/svg">
<path fill-rule="evenodd" clip-rule="evenodd" d="M16.8113 16.6207C16.0663 17.2755 15.08 18.36 14.0781 19.8712C12.7602 21.859 11.5614 24.3685 10.9081 27.1503C10.4662 29.0321 8.58244 30.1994 6.70063 29.7575C4.81883 29.3156 3.65157 27.4318 4.09348 25.55C4.96114 21.8553 6.53084 18.5868 8.24395 16.003C9.91949 13.4759 11.8862 11.3742 13.7176 10.1981C15.8122 8.85292 18.7567 8.31796 21.1742 10.326C23.2218 12.0267 23.8386 14.7733 23.8386 17.2705C23.8386 18.3272 23.694 19.3146 23.5528 20.1213C23.4841 20.5143 23.4247 20.8255 23.3716 21.1033C23.3381 21.2788 23.3072 21.441 23.278 21.6021C23.7975 21.0007 24.3766 20.2396 24.9918 19.335C26.1681 17.6056 27.255 15.6882 28.0595 14.174C28.4582 13.4235 28.7802 12.7861 29.001 12.3395C29.1113 12.1164 29.196 11.9416 29.252 11.8249C29.28 11.7665 29.3008 11.7228 29.3141 11.6948L29.3283 11.6648L29.3308 11.6595C29.3309 11.6593 29.3306 11.6598 29.3308 11.6595C30.1503 9.90929 32.2338 9.15382 33.9843 9.97305C35.7351 10.7924 36.4902 12.8759 35.6708 14.6266L32.5008 13.1431C35.6708 14.6266 35.6706 14.6272 35.6703 14.6278L35.6613 14.6469L35.6399 14.6922C35.6217 14.7306 35.5957 14.7852 35.5623 14.8548C35.4956 14.9938 35.3991 15.1927 35.2761 15.4416C35.0303 15.9387 34.6771 16.6379 34.2411 17.4585C33.3761 19.0865 32.1555 21.2493 30.7799 23.2717C29.4711 25.1962 27.7704 27.3775 25.8782 28.6851C24.9235 29.3449 23.5326 30.0554 21.8645 29.9986C19.9917 29.9347 18.5187 28.9412 17.5312 27.6148C15.8241 25.3218 16.0177 22.7827 16.2536 21.1815C16.327 20.6831 16.4417 20.0741 16.5377 19.5642C16.5844 19.3162 16.6267 19.0916 16.6576 18.9147C16.7758 18.2395 16.8386 17.7205 16.8386 17.2705C16.8386 17.0262 16.8283 16.8102 16.8113 16.6207ZM21.6762 23.0587C21.6763 23.0584 21.6812 23.0561 21.6908 23.0526C21.681 23.0572 21.6762 23.059 21.6762 23.0587Z" fill="#F93819"/>
</svg>
