<svg width="40" height="40" viewBox="0 0 40 40" fill="none" xmlns="http://www.w3.org/2000/svg">
<path fill-rule="evenodd" clip-rule="evenodd" d="M16.8107 16.6201C16.0657 17.2748 15.0795 18.3593 14.0776 19.8703C12.7597 21.8579 11.561 24.3672 10.9077 27.1488C10.4659 29.0305 8.5822 30.1976 6.70049 29.7557C4.81879 29.3139 3.65158 27.4303 4.09347 25.5486C4.96109 21.8542 6.53071 18.586 8.24374 16.0024C9.91919 13.4755 11.8858 11.374 13.7171 10.198C15.8116 8.85293 18.756 8.31802 21.1734 10.3259C23.2208 12.0264 23.8376 14.7728 23.8376 17.2698C23.8376 18.3264 23.693 19.3138 23.5518 20.1204C23.4831 20.5134 23.4237 20.8245 23.3706 21.1023C23.3371 21.2778 23.3062 21.44 23.277 21.6011C23.7965 20.9997 24.3756 20.2386 24.9908 19.3341C26.167 17.6048 27.2538 15.6876 28.0582 14.1736C28.457 13.4232 28.7789 12.7858 28.9997 12.3392C29.11 12.1161 29.1947 11.9414 29.2507 11.8247C29.2787 11.7663 29.2996 11.7225 29.3128 11.6946L29.327 11.6646L29.3295 11.6593C29.3296 11.6591 29.3294 11.6595 29.3295 11.6593C30.149 9.90921 32.2324 9.15381 33.9828 9.97297C35.7335 10.7922 36.4885 12.8755 35.6692 14.6262L32.4993 13.1427C35.6692 14.6262 35.669 14.6267 35.6687 14.6273L35.6597 14.6464L35.6383 14.6917C35.6201 14.7302 35.5941 14.7848 35.5607 14.8543C35.494 14.9933 35.3975 15.1922 35.2745 15.441C35.0288 15.9381 34.6755 16.6373 34.2395 17.4578C33.3746 19.0856 32.1541 21.2482 30.7786 23.2705C29.4698 25.1948 27.7692 27.376 25.8771 28.6835C24.9225 29.3431 23.5317 30.0537 21.8636 29.9968C19.9909 29.9329 18.5179 28.9395 17.5305 27.6132C15.8235 25.3204 16.0171 22.7816 16.253 21.1805C16.3264 20.6822 16.4411 20.0732 16.5371 19.5633C16.5837 19.3153 16.626 19.0908 16.657 18.9138C16.7751 18.2387 16.838 17.7198 16.838 17.2698C16.838 17.0255 16.8277 16.8095 16.8107 16.6201ZM21.6753 23.0575C21.6754 23.0573 21.6803 23.055 21.6899 23.0514C21.6801 23.056 21.6753 23.0578 21.6753 23.0575Z" fill="#0066FF"/>
</svg>
