<svg width="42" height="40" viewBox="0 0 42 40" fill="none" xmlns="http://www.w3.org/2000/svg">
<path fill-rule="evenodd" clip-rule="evenodd" d="M18.2094 17.1686C17.5575 17.6987 16.6945 18.5765 15.8179 19.7997C14.6648 21.4088 13.6159 23.4401 13.0443 25.6919C12.6576 27.2151 11.0094 28.16 9.36293 27.8023C7.71644 27.4446 6.69513 25.9197 7.08179 24.3965C7.84095 21.4058 9.21437 18.7601 10.7133 16.6686C12.1793 14.623 13.9 12.9218 15.5025 11.9698C17.3352 10.8809 19.9115 10.4479 22.0267 12.0733C23.8182 13.45 24.3579 15.6733 24.3579 17.6946C24.3579 18.5499 24.2314 19.3492 24.1079 20.0022C24.0477 20.3203 23.9957 20.5722 23.9493 20.7971C23.92 20.9392 23.8929 21.0705 23.8674 21.2009C24.3219 20.7141 24.8286 20.0979 25.3669 19.3657C26.3961 17.9658 27.3471 16.4138 28.051 15.1882C28.3999 14.5807 28.6816 14.0647 28.8748 13.7032C28.9713 13.5226 29.0454 13.3811 29.0944 13.2866C29.1189 13.2394 29.1371 13.204 29.1487 13.1813L29.1611 13.1571L29.1633 13.1528C29.1634 13.1526 29.1632 13.153 29.1633 13.1528C29.8804 11.736 31.7033 11.1245 33.235 11.7876C34.7668 12.4509 35.4274 14.1373 34.7106 15.5545L31.9369 14.3536C34.7106 15.5545 34.7103 15.5549 34.7101 15.5554L34.7023 15.5709L34.6835 15.6076C34.6676 15.6387 34.6448 15.6829 34.6156 15.7392C34.5572 15.8517 34.4728 16.0127 34.3652 16.2142C34.1502 16.6166 33.8411 17.1826 33.4596 17.8468C32.7028 19.1646 31.6348 20.9152 30.4313 22.5523C29.286 24.1101 27.798 25.8758 26.1425 26.9342C25.3072 27.4683 24.0902 28.0434 22.6306 27.9974C20.992 27.9457 19.7032 27.1415 18.8392 26.0678C17.3456 24.2117 17.515 22.1565 17.7214 20.8604C17.7856 20.457 17.8859 19.964 17.9699 19.5512C18.0108 19.3505 18.0478 19.1687 18.0749 19.0255C18.1782 18.479 18.2332 18.0589 18.2332 17.6946C18.2332 17.4969 18.2242 17.322 18.2094 17.1686ZM22.4659 22.3799C22.4659 22.3797 22.4702 22.3778 22.4786 22.375C22.4701 22.3787 22.4659 22.3801 22.4659 22.3799Z" fill="black"/>
<path d="M37.0112 17.628C36.7842 18.0528 36.4602 18.6459 36.0611 19.3408C35.2752 20.7092 34.1445 22.5662 32.8483 24.3293C31.664 25.9403 29.9056 28.089 27.7584 29.4618C26.6661 30.1601 24.8431 31.0687 22.536 30.9959C19.8896 30.9124 17.8253 29.5932 16.5019 27.9486C16.2332 27.6147 16.0002 27.277 15.7985 26.9386C14.7659 29.8719 11.6043 31.3592 8.72602 30.7339C5.62678 30.0605 3.31955 27.0245 4.17401 23.6584C5.03906 20.2505 6.59311 17.2677 8.27482 14.9211C9.89374 12.6621 11.9007 10.6202 13.9701 9.39066C16.4332 7.92729 20.4254 7.05946 23.8546 9.69451C24.8853 10.4865 25.6277 11.4295 26.1559 12.4253C26.1815 12.3776 26.2059 12.3323 26.2288 12.2893L26.7648 12.5757M37.0112 17.628L26.4871 11.7971C26.487 11.7973 26.4869 11.7975 26.4868 11.7977C26.4867 11.7978 26.4867 11.7979 26.4866 11.798L26.4862 11.7989L26.4786 11.8137C26.4784 11.8141 26.4781 11.8146 26.4779 11.815C26.4686 11.8333 26.453 11.8635 26.4317 11.9046C26.3877 11.9893 26.3192 12.1201 26.2288 12.2893L26.7648 12.5757M37.0112 17.628C37.1248 17.4152 37.2148 17.2436 37.2783 17.1212L37.0112 17.628ZM26.7648 12.5757C27.2281 13.4912 27.8612 14.0365 28.523 14.3503C28.5231 14.3501 28.5232 14.35 28.5233 14.3498C27.7117 13.8913 27.1777 13.1804 26.8602 12.6267M26.7648 12.5757L26.8602 12.6267M26.7648 12.5757C26.7648 12.5757 26.7648 12.5757 26.7648 12.5757M26.8602 12.6267L28.7436 13.633L26.8602 12.6267M26.8602 12.6267C26.8602 12.6267 26.8602 12.6267 26.8602 12.6267M26.8602 12.6267C26.6992 12.3459 26.5939 12.1055 26.5363 11.959C26.5098 11.8915 26.4934 11.8439 26.4863 11.8214L26.4772 11.8168C26.4728 11.8258 26.467 11.8376 26.4617 11.8483C26.4717 11.8779 26.4819 11.9071 26.4922 11.9361C26.5744 12.1671 26.6657 12.3799 26.7648 12.5757M26.8602 12.6267L26.7648 12.5757M37.3832 16.9172L37.3771 16.9292L37.374 16.9354L37.3552 16.9721L37.3536 16.9752C37.3354 17.0109 37.3101 17.0599 37.2784 17.1211L37.3832 16.9172ZM37.3832 16.9172C37.3838 16.9161 37.3844 16.9149 37.385 16.9137L37.3832 16.9172ZM37.386 16.9118C37.3865 16.9108 37.387 16.9097 37.3875 16.9087C38.9528 13.8144 37.4007 10.3221 34.4269 9.0346C31.5587 7.79277 27.9799 8.85185 26.4881 11.795L26.488 11.7952L26.4879 11.7955L37.386 16.9118ZM26.5209 11.7323C27.9202 11.2975 28.9915 11.5006 29.7932 11.9502C28.2252 11.2128 26.501 11.77 26.4968 11.778L26.4948 11.782C26.4977 11.7763 26.51 11.7527 26.5209 11.7323ZM26.4849 11.8169L26.4788 11.8137C26.4801 11.811 26.4813 11.8087 26.4822 11.8068C26.4822 11.8074 26.483 11.8108 26.4849 11.8169Z" stroke="#B7EC5D" stroke-opacity="0.3" stroke-width="6" stroke-linecap="round" stroke-linejoin="round"/>
<path d="M36.4945 16.4587C36.4947 16.4582 36.495 16.4578 36.4952 16.4573C37.7777 13.9221 36.5227 11.0317 34.0296 9.95228C31.6066 8.90324 28.6127 9.81343 27.3794 12.2485L27.379 12.2494M27.379 12.2494C27.3789 12.2494 27.3789 12.2495 27.3788 12.2496L27.379 12.2494ZM17.9987 16.3218C17.9987 16.3218 17.9994 16.3226 18.0006 16.3245" fill="black" stroke="#B7EC5D" stroke-width="4" stroke-linecap="round" stroke-linejoin="round"/>
<path d="M28.3551 12.9029C28.4532 13.0938 28.6418 13.3783 28.9513 13.5526M28.3551 12.9029L28.9513 13.5526M28.3551 12.9029C28.3182 12.8312 28.2942 12.7728 28.2812 12.7382L28.2673 12.7311M28.3551 12.9029L28.2673 12.7311M28.9513 13.5526C28.7137 13.4403 28.4871 13.2387 28.3302 12.89C28.3078 12.8401 28.2867 12.7872 28.2673 12.7311M28.9513 13.5526L28.2673 12.7311M25.3578 17.6388C25.348 15.4938 24.7675 12.9183 22.636 11.2804C20.0828 9.31843 17.0345 9.89639 14.9917 11.1101C13.2336 12.1546 11.4174 13.9694 9.90045 16.0861C8.34062 18.2626 6.90699 21.0207 6.11253 24.1505C5.56994 26.288 7.01988 28.3166 9.15063 28.7795C11.2617 29.2381 13.4793 28.0427 14.0135 25.9379C14.5498 23.8252 15.5386 21.9062 16.6307 20.3822C16.7014 20.2836 16.7719 20.1875 16.8421 20.0938C16.8022 20.3026 16.7643 20.5115 16.7338 20.7031C16.5171 22.0642 16.2882 24.4928 18.0601 26.6948C19.0772 27.9588 20.6245 28.9346 22.5991 28.9969C24.3412 29.0519 25.7602 28.3656 26.6811 27.7768C28.5006 26.6135 30.0787 24.7201 31.237 23.1447C32.4714 21.4656 33.5603 19.6794 34.3268 18.3448C34.6675 17.7515 34.9515 17.2352 35.164 16.8405L35.1777 16.8465L35.5939 16.0236L35.6017 16.0082L35.602 16.0076L35.6029 16.0059C36.6026 14.0297 35.6448 11.7413 33.6323 10.87C31.6548 10.0138 29.2461 10.7749 28.2711 12.7012L28.2709 12.7015L28.2706 12.7022L28.2704 12.7025L28.2698 12.7037L28.2696 12.7041L28.2587 12.7254C28.2479 12.7466 28.2305 12.7804 28.2068 12.826C28.1595 12.9172 28.0872 13.0551 27.9928 13.2319L28.8748 13.7032L27.9928 13.2319C27.8036 13.586 27.5268 14.0929 27.1838 14.6901L27.9256 15.1162L27.1838 14.6901C26.6785 15.57 26.0483 16.6128 25.3578 17.6388ZM28.2696 12.7042C28.2696 12.7051 28.2732 12.7166 28.2806 12.7367L28.2668 12.7296C28.2654 12.7257 28.2641 12.7218 28.2628 12.7179L28.2696 12.7042ZM29.3722 12.7514C28.8518 12.5072 28.2801 12.6904 28.2745 12.6944L28.2825 12.6793C28.7483 12.5346 29.1051 12.6019 29.3722 12.7514Z" fill="black" stroke="black" stroke-width="2" stroke-linecap="round"/>
<path fill-rule="evenodd" clip-rule="evenodd" d="M18.2094 17.1686C17.5575 17.6987 16.6945 18.5765 15.8179 19.7997C14.6648 21.4088 13.6159 23.4401 13.0443 25.6919C12.6576 27.2151 11.0094 28.16 9.36293 27.8023C7.71644 27.4446 6.69513 25.9197 7.08179 24.3965C7.84095 21.4058 9.21437 18.7601 10.7133 16.6686C12.1793 14.623 13.9 12.9218 15.5025 11.9698C17.3352 10.8809 19.9115 10.4479 22.0267 12.0733C23.8182 13.45 24.3579 15.6733 24.3579 17.6946C24.3579 18.5499 24.2314 19.3492 24.1079 20.0022C24.0477 20.3203 23.9957 20.5722 23.9493 20.7971C23.92 20.9392 23.8929 21.0705 23.8674 21.2009C24.3219 20.7141 24.8286 20.0979 25.3669 19.3657C26.3961 17.9658 27.3471 16.4138 28.051 15.1882C28.3999 14.5807 28.6816 14.0647 28.8748 13.7032C28.9713 13.5226 29.0454 13.3811 29.0944 13.2866C29.1189 13.2394 29.1371 13.204 29.1487 13.1813L29.1611 13.1571L29.1633 13.1528C29.1634 13.1526 29.1632 13.153 29.1633 13.1528C29.8804 11.736 31.7033 11.1245 33.235 11.7876C34.7668 12.4509 35.4274 14.1373 34.7106 15.5545L31.9369 14.3536C34.7106 15.5545 34.7103 15.5549 34.7101 15.5554L34.7023 15.5709L34.6835 15.6076C34.6676 15.6387 34.6448 15.6829 34.6156 15.7392C34.5572 15.8517 34.4728 16.0127 34.3652 16.2142C34.1502 16.6166 33.8411 17.1826 33.4596 17.8468C32.7028 19.1646 31.6348 20.9152 30.4313 22.5523C29.286 24.1101 27.798 25.8758 26.1425 26.9342C25.3072 27.4683 24.0902 28.0434 22.6306 27.9974C20.992 27.9457 19.7032 27.1415 18.8392 26.0678C17.3456 24.2117 17.515 22.1565 17.7214 20.8604C17.7856 20.457 17.8859 19.964 17.9699 19.5512C18.0108 19.3505 18.0478 19.1687 18.0749 19.0255C18.1782 18.479 18.2332 18.0589 18.2332 17.6946C18.2332 17.4969 18.2242 17.322 18.2094 17.1686ZM22.4659 22.3799C22.4659 22.3797 22.4702 22.3778 22.4786 22.375C22.4701 22.3787 22.4659 22.3801 22.4659 22.3799Z" fill="white"/>
</svg>
