<svg width="136" height="136" viewBox="0 0 136 136" fill="none" xmlns="http://www.w3.org/2000/svg">
<circle cx="68" cy="68" r="67" fill="#4D4D4D" stroke="#B7EC5D" stroke-width="2"/>
<g transform="translate(28,28) scale(2)">
  <path d="M5 13.333C5 10.1903 5 8.619 5.97631 7.64269C6.95262 6.66638 8.52397 6.66638 11.6667 6.66638H14.8167C15.7981 6.66638 16.2888 6.66638 16.7306 6.83705C17.1724 7.00772 17.5233 7.33061 18.225 7.97638L19.775 9.35638C20.4767 10.0022 20.8276 10.325 21.2694 10.4957C21.7112 10.6664 22.2019 10.6664 23.1833 10.6664H28.3333C31.476 10.6664 33.0474 10.6664 34.0237 11.6427C35 12.619 35 14.1903 35 17.333V26.6664C35 29.8091 35 31.3804 34.0237 32.3567C33.0474 33.333 31.476 33.333 28.3333 33.333H11.6667C8.52397 33.333 6.95262 33.333 5.97631 32.3567C5 31.3804 5 29.8091 5 26.6664V13.333Z" stroke="#B7EC5D" stroke-width="2" stroke-linejoin="round"/>
  <path d="M20 18.333V25.833" stroke="#B7EC5D" stroke-width="2" stroke-linecap="round"/>
  <path d="M16.25 21.999H23.75" stroke="#B7EC5D" stroke-width="2" stroke-linecap="round"/>
</g>
</svg>
