<svg width="40" height="40" viewBox="0 0 40 40" fill="none" xmlns="http://www.w3.org/2000/svg">
<path d="M21.9523 5H14.9997C11.857 5 10.2856 5 9.30932 5.97631C8.33301 6.95262 8.33301 8.52397 8.33301 11.6667V28.3333C8.33301 31.476 8.33301 33.0474 9.30932 34.0237C10.2856 35 11.857 35 14.9997 35H24.9997C28.1424 35 29.7137 35 30.69 34.0237C31.6663 33.0474 31.6663 31.476 31.6663 28.3333V14.714C31.6663 14.0328 31.6663 13.6922 31.5395 13.3859C31.4126 13.0796 31.1717 12.8387 30.69 12.357L24.3093 5.97631C23.8276 5.49459 23.5867 5.25373 23.2805 5.12687C22.9742 5 22.6335 5 21.9523 5Z" stroke="#B7EC5D" stroke-width="2.5"/>
<path d="M15 21.666L25 21.666" stroke="#B7EC5D" stroke-width="2.5" stroke-linecap="round"/>
<path d="M15 28.334L21.6667 28.334" stroke="#B7EC5D" stroke-width="2.5" stroke-linecap="round"/>
<path d="M21.667 5V11.6667C21.667 13.238 21.667 14.0237 22.1551 14.5118C22.6433 15 23.429 15 25.0003 15H31.667" stroke="#B7EC5D" stroke-width="2.5"/>
</svg>
