<svg xmlns="http://www.w3.org/2000/svg" viewBox="0 0 80 80" id="global" fill="currentColor"><path d="M40 5C20.701 5 5 20.701 5 40s15.701 35 35 35 35-15.701 35-35S59.299 5 40 5zM9.071 42h12.46c.132 4.655.725 9.039 1.695 13H12.883A30.773 30.773 0 0 1 9.07 42zM42 21V9.332c3.533 1.16 6.998 5.321 9.381 11.668H42zm10.653 4c1.016 3.804 1.672 8.177 1.815 13H42V25h10.653zM38 9.332V21h-9.381C31.002 14.653 34.467 10.493 38 9.332zM38 25v13H25.532c.143-4.823.799-9.196 1.815-13H38zM21.53 38H9.071a30.773 30.773 0 0 1 3.812-13h10.343c-.97 3.961-1.563 8.345-1.696 13zm4.002 4H38v13H27.347c-1.016-3.804-1.672-8.177-1.815-13zM38 59v11.668c-3.533-1.16-6.998-5.321-9.381-11.668H38zm4 11.668V59h9.381C48.998 65.347 45.533 69.507 42 70.668zM42 55V42h12.468c-.143 4.823-.799 9.196-1.815 13H42zm16.47-13h12.459a30.773 30.773 0 0 1-3.812 13H56.774c.97-3.961 1.563-8.345 1.696-13zm0-4c-.133-4.655-.726-9.039-1.696-13h10.343a30.773 30.773 0 0 1 3.812 13h-12.46zm5.999-17h-8.852c-1.373-4.085-3.181-7.57-5.315-10.233A31.125 31.125 0 0 1 64.47 21zM29.698 10.767C27.564 13.43 25.756 16.915 24.383 21h-8.852a31.125 31.125 0 0 1 14.167-10.233zM15.53 59h8.852c1.373 4.085 3.181 7.57 5.315 10.233A31.125 31.125 0 0 1 15.53 59zm34.771 10.233c2.134-2.663 3.942-6.148 5.315-10.233h8.852a31.125 31.125 0 0 1-14.167 10.233z"></path></svg>