<svg width="40" height="40" viewBox="0 0 40 40" fill="none" xmlns="http://www.w3.org/2000/svg">
<path fill-rule="evenodd" clip-rule="evenodd" d="M20 35C28.8366 35 36 27.8366 36 19C36 10.1634 28.8366 3 20 3C11.1634 3 4 10.1634 4 19C4 27.8366 11.1634 35 20 35ZM20.5195 22.249C20.7441 22.0244 20.8864 21.7549 20.9463 21.4404C21.0511 20.9613 21.2458 20.4896 21.5303 20.0254C21.8148 19.5462 22.1217 19.112 22.4512 18.7227C22.7956 18.3333 23.1325 17.9365 23.4619 17.5322C23.7913 17.113 24.0684 16.6488 24.293 16.1396C24.5176 15.6305 24.6299 15.1064 24.6299 14.5674C24.6299 13.2497 24.2106 12.224 23.3721 11.4902C22.5485 10.7415 21.4554 10.3672 20.0928 10.3672C18.6553 10.3672 17.3675 10.8613 16.2295 11.8496C16.0348 12.0293 15.9375 12.2464 15.9375 12.501C15.9375 12.8005 16.0423 13.0475 16.252 13.2422C16.4616 13.4219 16.7012 13.5117 16.9707 13.5117H16.9932C17.2627 13.4967 17.5173 13.4069 17.7568 13.2422C18.3857 12.763 19.0671 12.5234 19.8008 12.5234C20.5046 12.5234 21.0511 12.7331 21.4404 13.1523C21.8447 13.5716 22.0469 14.1032 22.0469 14.7471C22.0469 15.1663 21.9346 15.5856 21.71 16.0049C21.4854 16.4242 21.2083 16.8285 20.8789 17.2178C20.5645 17.6071 20.2425 18.0039 19.9131 18.4082C19.5837 18.8125 19.2917 19.2767 19.0371 19.8008C18.7227 20.4447 18.5654 21.0286 18.5654 21.5527C18.5654 21.8223 18.6702 22.0544 18.8799 22.249C19.1195 22.4736 19.4115 22.5859 19.7559 22.5859C20.0553 22.5859 20.3099 22.4736 20.5195 22.249ZM18.5205 27.7744C18.8649 28.1188 19.2917 28.291 19.8008 28.291C20.2949 28.291 20.7067 28.1188 21.0361 27.7744C21.3805 27.43 21.5527 26.9958 21.5527 26.4717C21.5527 25.9326 21.3805 25.4834 21.0361 25.124C20.7067 24.7497 20.2949 24.5625 19.8008 24.5625C19.2917 24.5625 18.8649 24.7422 18.5205 25.1016C18.1911 25.4609 18.0264 25.9102 18.0264 26.4492C18.0264 26.9883 18.1911 27.43 18.5205 27.7744Z" fill="#B7EC5D"/>
</svg>
