<svg width="40" height="40" viewBox="0 0 40 40" fill="none" xmlns="http://www.w3.org/2000/svg">
<mask id="path-1-inside-1_75_3422" fill="white">
<path fill-rule="evenodd" clip-rule="evenodd" d="M11 5C8.79086 5 7 6.79086 7 9V19.5V30C7 32.2091 8.79086 34 11 34H27C29.2091 34 31 32.2091 31 30V17.1852V7.59259C31 6.40045 31.8046 5.39624 32.9004 5.09342C32.6224 5.03225 32.3335 5 32.037 5H11Z"/>
</mask>
<path d="M32.9004 5.09342L33.5663 7.5031L33.4376 2.65182L32.9004 5.09342ZM9.5 9C9.5 8.17157 10.1716 7.5 11 7.5V2.5C7.41015 2.5 4.5 5.41015 4.5 9H9.5ZM9.5 19.5V9H4.5V19.5H9.5ZM9.5 30V19.5H4.5V30H9.5ZM11 31.5C10.1716 31.5 9.5 30.8284 9.5 30H4.5C4.5 33.5898 7.41015 36.5 11 36.5V31.5ZM27 31.5H11V36.5H27V31.5ZM28.5 30C28.5 30.8284 27.8284 31.5 27 31.5V36.5C30.5899 36.5 33.5 33.5898 33.5 30H28.5ZM33.5 30V17.1852H28.5V30H33.5ZM33.5 17.1852V7.59259H28.5V17.1852H33.5ZM33.5 7.59259C33.5 7.5775 33.5023 7.56824 33.5045 7.56189C33.507 7.5546 33.5113 7.5462 33.5181 7.53739C33.5332 7.51777 33.552 7.50708 33.5663 7.5031L32.2345 2.68374C30.0832 3.27826 28.5 5.24732 28.5 7.59259H33.5ZM32.037 7.5C32.1517 7.5 32.2605 7.51242 32.3633 7.53503L33.4376 2.65182C32.9843 2.55208 32.5153 2.5 32.037 2.5V7.5ZM11 7.5H32.037V2.5H11V7.5Z" fill="currentColor" mask="url(#path-1-inside-1_75_3422)"/>
<path d="M34.75 8.75V11C34.75 11.4142 34.4142 11.75 34 11.75H29.75V8.75C29.75 7.36929 30.8693 6.25 32.25 6.25C33.6307 6.25 34.75 7.36929 34.75 8.75Z" stroke="currentColor" stroke-width="2.5"/>
<path d="M13.5 12H24.5" stroke="currentColor" stroke-width="2.5" stroke-linecap="round"/>
<path d="M13.5 19H24.5" stroke="currentColor" stroke-width="2.5" stroke-linecap="round"/>
<path d="M13.5 26H18.5" stroke="currentColor" stroke-width="2.5" stroke-linecap="round"/>
</svg>
