<svg width="40" height="40" viewBox="0 0 40 40" fill="none" xmlns="http://www.w3.org/2000/svg">
<g clip-path="url(#clip0_73_7112)">
<path d="M31.7565 27.1345C32.0155 26.4946 31.7067 25.7658 31.0668 25.5068C30.4269 25.2478 29.6982 25.5565 29.4391 26.1964L31.7565 27.1345ZM20 32.5583C14.3785 32.5583 9.82141 28.0012 9.82141 22.3797H7.32141C7.32141 29.3819 12.9978 35.0583 20 35.0583V32.5583ZM9.82141 22.3797C9.82141 16.7583 14.3785 12.2012 20 12.2012V9.70117C12.9978 9.70117 7.32141 15.3776 7.32141 22.3797H9.82141ZM29.4391 26.1964C27.9282 29.929 24.2697 32.5583 20 32.5583V35.0583C25.3228 35.0583 29.8766 31.7786 31.7565 27.1345L29.4391 26.1964ZM20 12.2012C24.2697 12.2012 27.9282 14.8305 29.4391 18.563L31.7565 17.625C29.8766 12.9809 25.3228 9.70117 20 9.70117V12.2012Z" fill="currentColor"/>
<path d="M31.4283 10.9512V16.6178C31.4283 17.1701 30.9806 17.6178 30.4283 17.6178H24.7617" stroke="currentColor" stroke-width="2.5" stroke-linecap="round"/>
</g>
<defs>
<clipPath id="clip0_73_7112">
<rect width="40" height="40" fill="white"/>
</clipPath>
</defs>
</svg>
