<svg width="50" height="50" viewBox="0 0 50 50" fill="none" xmlns="http://www.w3.org/2000/svg">
<circle cx="25" cy="25" r="23.75" stroke="#B7EC5D" stroke-width="2.5"/>
<mask id="path-2-inside-1_73_12297" fill="white">
<path fill-rule="evenodd" clip-rule="evenodd" d="M50 25C50 33.2945 45.9606 40.6455 39.7417 45.1932C39.9113 44.3206 40 43.4203 40 42.5C40 34.4919 33.2843 28 25 28C16.7157 28 10 34.4919 10 42.5C10 43.4203 10.0887 44.3206 10.2583 45.1932C4.03937 40.6455 0 33.2945 0 25C0 11.1929 11.1929 0 25 0C38.8071 0 50 11.1929 50 25ZM25 24C29.4183 24 33 20.4183 33 16C33 11.5817 29.4183 8 25 8C20.5817 8 17 11.5817 17 16C17 20.4183 20.5817 24 25 24Z"/>
</mask>
<path fill-rule="evenodd" clip-rule="evenodd" d="M50 25C50 33.2945 45.9606 40.6455 39.7417 45.1932C39.9113 44.3206 40 43.4203 40 42.5C40 34.4919 33.2843 28 25 28C16.7157 28 10 34.4919 10 42.5C10 43.4203 10.0887 44.3206 10.2583 45.1932C4.03937 40.6455 0 33.2945 0 25C0 11.1929 11.1929 0 25 0C38.8071 0 50 11.1929 50 25ZM25 24C29.4183 24 33 20.4183 33 16C33 11.5817 29.4183 8 25 8C20.5817 8 17 11.5817 17 16C17 20.4183 20.5817 24 25 24Z" fill="#B7EC5D"/>
<path d="M39.7417 45.1932L37.2876 44.7164L36.0717 50.9742L41.2174 47.2112L39.7417 45.1932ZM10.2583 45.1932L8.78255 47.2112L13.9283 50.9742L12.7124 44.7164L10.2583 45.1932ZM41.2174 47.2112C48.0524 42.213 52.5 34.1257 52.5 25H47.5C47.5 32.4632 43.8689 39.078 38.266 43.1753L41.2174 47.2112ZM37.5 42.5C37.5 43.2593 37.4269 43.9999 37.2876 44.7164L42.1958 45.6701C42.3958 44.6413 42.5 43.5813 42.5 42.5H37.5ZM25 30.5C31.9841 30.5 37.5 35.9518 37.5 42.5H42.5C42.5 33.0319 34.5844 25.5 25 25.5V30.5ZM12.5 42.5C12.5 35.9518 18.0159 30.5 25 30.5V25.5C15.4156 25.5 7.5 33.0319 7.5 42.5H12.5ZM12.7124 44.7164C12.5731 43.9999 12.5 43.2593 12.5 42.5H7.5C7.5 43.5813 7.60425 44.6413 7.80416 45.6701L12.7124 44.7164ZM-2.5 25C-2.5 34.1257 1.9476 42.213 8.78255 47.2112L11.734 43.1753C6.13114 39.078 2.5 32.4632 2.5 25H-2.5ZM25 -2.5C9.81217 -2.5 -2.5 9.81217 -2.5 25H2.5C2.5 12.5736 12.5736 2.5 25 2.5V-2.5ZM52.5 25C52.5 9.81217 40.1878 -2.5 25 -2.5V2.5C37.4264 2.5 47.5 12.5736 47.5 25H52.5ZM30.5 16C30.5 19.0376 28.0376 21.5 25 21.5V26.5C30.799 26.5 35.5 21.799 35.5 16H30.5ZM25 10.5C28.0376 10.5 30.5 12.9624 30.5 16H35.5C35.5 10.201 30.799 5.5 25 5.5V10.5ZM19.5 16C19.5 12.9624 21.9624 10.5 25 10.5V5.5C19.201 5.5 14.5 10.201 14.5 16H19.5ZM25 21.5C21.9624 21.5 19.5 19.0376 19.5 16H14.5C14.5 21.799 19.201 26.5 25 26.5V21.5Z" fill="#B7EC5D" mask="url(#path-2-inside-1_73_12297)"/>
</svg>
