<svg width="50" height="50" viewBox="0 0 50 50" fill="none" xmlns="http://www.w3.org/2000/svg">
<circle cx="25" cy="16" r="6.75" stroke="#B7EC5D" stroke-width="2.5"/>
<mask id="path-2-inside-1_159_28384" fill="white">
<path fill-rule="evenodd" clip-rule="evenodd" d="M10.2583 45.1932C10.0887 44.3206 10 43.4203 10 42.5C10 34.4919 16.7157 28 25 28C33.2843 28 40 34.4919 40 42.5C40 43.4203 39.9113 44.3206 39.7417 45.1932C35.6086 48.2157 30.5126 50 25 50C19.4874 50 14.3914 48.2157 10.2583 45.1932Z"/>
</mask>
<path d="M10.2583 45.1932L7.80416 45.6701L7.99117 46.6325L8.78255 47.2112L10.2583 45.1932ZM39.7417 45.1932L41.2174 47.2112L42.0088 46.6325L42.1958 45.6701L39.7417 45.1932ZM12.7124 44.7164C12.5731 43.9999 12.5 43.2593 12.5 42.5H7.5C7.5 43.5813 7.60425 44.6413 7.80416 45.6701L12.7124 44.7164ZM12.5 42.5C12.5 35.9518 18.0159 30.5 25 30.5V25.5C15.4156 25.5 7.5 33.0319 7.5 42.5H12.5ZM25 30.5C31.9841 30.5 37.5 35.9518 37.5 42.5H42.5C42.5 33.0319 34.5844 25.5 25 25.5V30.5ZM37.5 42.5C37.5 43.2593 37.4269 43.9999 37.2876 44.7164L42.1958 45.6701C42.3958 44.6413 42.5 43.5813 42.5 42.5H37.5ZM38.266 43.1753C34.5467 45.8951 29.9644 47.5 25 47.5V52.5C31.0609 52.5 36.6704 50.5364 41.2174 47.2112L38.266 43.1753ZM25 47.5C20.0356 47.5 15.4533 45.8951 11.734 43.1753L8.78255 47.2112C13.3296 50.5364 18.9391 52.5 25 52.5V47.5Z" fill="#B7EC5D" mask="url(#path-2-inside-1_159_28384)"/>
<circle cx="25" cy="16" r="6.75" stroke="#B7EC5D" stroke-width="2.5"/>
<circle cx="25" cy="25" r="23.75" stroke="#B7EC5D" stroke-width="2.5"/>
</svg>
