<svg xmlns="http://www.w3.org/2000/svg" width="192" height="138" viewBox="0 0 192 138" version="1.1">
	<path d="M 91.500 1 C 91.160 1.550, 90.229 2, 89.430 2 C 88.632 2, 85.899 2.977, 83.357 4.172 C 79.259 6.098, 78.240 6.212, 74.354 5.172 C 62.242 1.933, 49.117 5.837, 39.500 15.542 C 36.750 18.316, 33.877 21.917, 33.116 23.543 C 32.355 25.170, 31.230 27.581, 30.616 28.902 C 29.028 32.321, 29.264 48.786, 30.962 53.017 C 32.920 57.893, 37.824 65.001, 41.443 68.208 C 49.502 75.348, 63.074 78.621, 73.877 76.029 C 78.274 74.975, 79.379 75.019, 81.377 76.328 C 82.666 77.172, 86.234 78.594, 89.307 79.487 C 111.637 85.979, 133.680 73.851, 140.519 51.310 C 142.005 46.413, 142.432 40.289, 141.464 37.766 C 141.046 36.678, 139.769 36.533, 135.714 37.111 C 132.846 37.520, 127.492 37.887, 123.815 37.927 C 114.987 38.023, 112.773 39.006, 109.742 44.172 C 105.558 51.302, 99.191 56, 93.714 56 C 87.564 56, 86.030 51.231, 90.750 46.782 C 94.270 43.463, 100.511 40, 102.971 40 C 104.022 40, 105.160 39.550, 105.500 39 C 105.840 38.450, 106.991 38, 108.059 38 C 110.744 38, 110.485 35.730, 107.380 32.040 C 103.370 27.274, 98.883 25.843, 88 25.858 C 79.636 25.870, 75.594 26.530, 65.210 29.581 C 63.950 29.951, 62.287 31.477, 61.514 32.972 C 59.702 36.477, 60.204 46.812, 62.511 53.477 C 64.484 59.178, 71.155 69.462, 73.452 70.343 C 76.604 71.553, 75.059 73.764, 70.595 74.433 C 64.644 75.326, 56.459 74.163, 51 71.649 C 45.118 68.941, 37.042 60.787, 34.015 54.500 C 30.599 47.406, 30.693 34.899, 34.221 27 C 38.425 17.589, 47.639 10.078, 58.616 7.112 C 63.857 5.696, 67.291 5.707, 72.125 7.156 L 75.982 8.311 71.584 13.014 C 67.352 17.538, 63 24.668, 63 27.077 C 63 27.806, 63.832 27.988, 65.250 27.571 C 75.343 24.599, 79.673 23.874, 87.609 23.825 C 101.227 23.741, 107.056 26.330, 111.127 34.269 C 112.675 37.288, 113.403 37.863, 114.780 37.156 C 115.726 36.670, 121 35.994, 126.500 35.652 C 140.701 34.771, 141.195 34.574, 140.381 30.128 C 138.183 18.116, 126.948 6.454, 112.843 1.542 C 107.944 -0.164, 92.463 -0.557, 91.500 1 M 105 40.979 C 104.175 41.449, 101.834 42.557, 99.798 43.441 C 91.224 47.164, 86.723 54, 92.846 54 C 96.650 54, 100.834 51.806, 104.676 47.798 C 109.245 43.030, 109.463 38.437, 105 40.979 M 11.579 99.872 C 10.866 101.026, 10.951 133.500, 11.675 136.250 C 12.302 138.636, 16.254 138.482, 18.514 135.984 C 20.107 134.224, 20.348 132.005, 20.411 118.512 C 20.470 106.060, 20.194 102.771, 18.992 101.594 C 17.005 99.646, 12.382 98.573, 11.579 99.872 M 28.055 100.945 C 26.294 102.706, 26.146 104.050, 26.486 115.195 C 26.693 121.963, 26.893 128.894, 26.931 130.597 C 27.003 133.809, 29.838 138, 31.939 138 C 32.601 138, 33.898 137.244, 34.821 136.320 C 36.254 134.886, 36.500 132.274, 36.500 118.473 C 36.500 101.462, 35.916 99, 31.878 99 C 30.845 99, 29.125 99.875, 28.055 100.945 M 43 100.500 C 43 101.325, 43.675 102, 44.500 102 C 45.778 102, 46 104.673, 46 120.059 C 46 131.844, 46.347 137.903, 47 137.500 C 47.604 137.126, 48 130.025, 48 119.548 C 48 104.750, 48.229 102.126, 49.563 101.614 C 52.109 100.637, 50.154 99, 46.441 99 C 44.049 99, 43 99.457, 43 100.500 M 58 100.517 C 58 101.241, 58.529 102.010, 59.175 102.225 C 60.009 102.503, 60.372 107.469, 60.425 119.309 C 60.473 129.901, 60.865 135.910, 61.500 135.751 C 62.107 135.599, 62.571 129.039, 62.681 119.079 C 62.833 105.232, 63.110 102.518, 64.452 101.767 C 66.848 100.426, 65.440 99.200, 61.503 99.200 C 59.273 99.200, 58 99.678, 58 100.517 M 72.735 99.695 C 72.487 100.138, 72.558 108.825, 72.892 119 L 73.500 137.500 77.250 137.810 C 80.216 138.056, 81 137.770, 81 136.444 C 81 135.259, 80.413 134.920, 79.001 135.289 C 76.256 136.007, 75.811 134.901, 75.777 127.268 C 75.754 121.991, 76.117 120.387, 77.580 119.318 C 79.336 118.034, 79.320 117.913, 77.206 116.432 C 75.319 115.110, 75 113.954, 75 108.443 C 75 104.017, 75.391 101.964, 76.250 101.885 C 79.066 101.625, 79.522 101.457, 80 100.500 C 80.592 99.316, 73.394 98.519, 72.735 99.695 M 88.667 99.667 C 87.833 100.500, 87.779 134.260, 88.607 136.418 C 89.663 139.170, 94.355 138.361, 96.284 135.096 C 97.687 132.721, 98 129.615, 98 118.050 C 98 104.370, 97.920 103.829, 95.545 101.455 C 93.181 99.090, 90.056 98.278, 88.667 99.667 M 115.145 100.750 C 113.760 101.917, 112.847 104.247, 112.406 107.743 C 111.750 112.941, 111.781 113.022, 116.122 117.237 C 120.387 121.378, 120.499 121.650, 120.480 127.793 C 120.466 132.248, 120.028 134.364, 118.988 135.007 C 117.297 136.053, 116.342 135.316, 115.847 132.583 C 115.330 129.725, 112.994 129.380, 113.032 132.167 C 113.075 135.320, 115.267 138, 117.804 138 C 121.204 138, 123 134.268, 123 127.199 C 123 121.111, 122.832 120.677, 119 116.883 C 114.927 112.850, 114.128 109.856, 115.630 104.250 C 116.416 101.318, 119.752 101.261, 120.180 104.172 C 120.646 107.336, 123 107.727, 123 104.640 C 123 103.163, 122.077 101.467, 120.777 100.557 C 117.987 98.602, 117.681 98.613, 115.145 100.750 M 141 100.293 C 138.510 101.551, 138.499 101.622, 138.224 117.436 C 137.960 132.616, 138.045 133.418, 140.148 135.658 C 142.797 138.478, 144.156 138.590, 146.345 136.171 C 148.665 133.608, 148.756 118.227, 146.457 117.345 C 144.387 116.551, 143.343 117.743, 144.817 119.217 C 146.653 121.053, 146.379 133.917, 144.487 134.643 C 143.655 134.963, 142.305 134.668, 141.487 133.989 C 139.547 132.379, 139.292 105.108, 141.200 103.200 C 143.353 101.047, 146 101.763, 146 104.500 C 146 105.875, 146.450 107, 147 107 C 148.885 107, 148.096 101.122, 146.066 100.035 C 143.711 98.775, 144.037 98.758, 141 100.293 M 130 118 C 130 129.333, 130.370 136, 131 136 C 131.630 136, 132 129.333, 132 118 C 132 106.667, 131.630 100, 131 100 C 130.370 100, 130 106.667, 130 118 M 155.728 100.750 C 155.514 101.162, 155.271 109.263, 155.190 118.750 C 155.059 133.994, 155.228 136, 156.650 136 C 158.002 136, 158.152 135.201, 157.590 130.966 C 156.895 125.726, 157.673 119, 158.974 119 C 159.388 119, 159.966 121.813, 160.258 125.250 C 160.867 132.397, 162.532 137.407, 163.998 136.501 C 165.583 135.522, 165.338 99.718, 163.750 100.260 C 162.850 100.567, 162.575 103.132, 162.767 109.432 C 162.963 115.884, 162.719 118.073, 161.833 117.778 C 160.606 117.369, 158.180 107.695, 158.064 102.750 C 158.005 100.199, 156.628 99.020, 155.728 100.750 M 13.788 102.546 C 13.177 103.156, 13.969 135.257, 14.612 135.927 C 14.837 136.162, 15.677 135.487, 16.479 134.427 C 18.386 131.906, 18.662 105.062, 16.800 103.200 C 15.490 101.890, 14.630 101.703, 13.788 102.546 M 29.070 103.869 C 28.520 104.896, 28.312 105.978, 28.607 106.273 C 28.902 106.568, 29.127 112.414, 29.108 119.263 C 29.083 128.011, 29.462 132.250, 30.384 133.511 C 33.247 137.426, 34 134.182, 34 117.941 C 34 102.762, 33.906 102, 32.035 102 C 30.955 102, 29.620 102.841, 29.070 103.869 M 90.367 118.146 C 90.655 127.026, 91.325 134.725, 91.853 135.253 C 93.819 137.219, 95.372 131.373, 95.805 120.381 C 96.305 107.660, 95.085 102, 91.843 102 C 89.901 102, 89.857 102.487, 90.367 118.146" stroke="none" fill="black" fill-rule="evenodd"/>
</svg>