<svg xmlns="http://www.w3.org/2000/svg" width="400" height="288" viewBox="0 0 400 288" version="1.1">
	<path d="M 195.500 1.503 C 186.430 3.217, 178.196 6.159, 170.260 10.521 L 163.888 14.024 156.694 11.776 C 147.323 8.848, 127.980 8.650, 118.058 11.381 C 61.604 26.919, 42.188 94.684, 81.958 137.375 C 98.005 154.600, 123.475 163.500, 146.913 160.073 C 151.416 159.415, 156.979 158.213, 159.275 157.403 C 163.432 155.936, 163.486 155.948, 172.531 160.438 C 185.374 166.812, 196.499 169.331, 211.500 169.260 C 220.393 169.219, 225.571 168.656, 231.500 167.086 C 268.751 157.225, 294.602 124.917, 295.309 87.339 C 295.414 81.751, 295.264 76.940, 294.976 76.649 C 293.808 75.468, 232.831 81.001, 232.480 82.319 C 229.065 95.177, 218.404 107.722, 205.487 114.081 C 192.134 120.655, 181.177 116.576, 183.521 105.903 C 185.276 97.912, 204.327 85.702, 221.849 81.337 L 229.197 79.506 228.684 75.682 C 228.017 70.710, 224.015 64.748, 218.816 60.982 C 211.857 55.941, 203.322 53.827, 187.586 53.246 C 170.488 52.616, 158.971 54.373, 141.041 60.348 C 126.669 65.137, 127.412 64.165, 126.347 79.581 C 124.609 104.770, 133.855 128.273, 152.718 146.610 L 160.032 153.720 153.766 155.110 C 144.591 157.145, 124.974 156.884, 117.500 154.626 C 93.620 147.412, 75.179 129.488, 67.987 106.500 C 64.619 95.735, 64.127 78.888, 66.864 68.065 C 72.503 45.767, 85.918 29.589, 107.117 19.521 C 116.315 15.153, 125.961 13.040, 136.803 13.017 C 145.226 13, 159 15.469, 159 16.996 C 159 17.456, 157.134 19.310, 154.852 21.117 C 148.400 26.227, 139.393 38.284, 134.475 48.393 C 130.529 56.504, 129.276 60, 130.312 60 C 130.484 60, 134.567 58.667, 139.386 57.039 C 164.424 48.575, 189.978 46.873, 208.500 52.436 C 220.067 55.909, 230.226 64.878, 231.537 72.774 C 231.877 74.823, 232.304 76.989, 232.484 77.588 C 232.718 78.361, 235.080 78.309, 240.656 77.406 C 244.970 76.708, 258.625 75.387, 271 74.471 C 283.375 73.554, 293.796 72.511, 294.158 72.152 C 295.511 70.812, 290.856 56.143, 285.859 46 C 281.236 36.614, 279.615 34.439, 270.593 25.500 C 263.684 18.654, 258.134 14.177, 253 11.306 C 235.195 1.348, 214.759 -2.136, 195.500 1.503 M 220 85.383 C 209.353 88.479, 197.768 94.493, 191.972 99.934 C 187.763 103.885, 187 105.164, 187 108.266 C 187 112.486, 188.921 114, 194.275 114 C 203.352 114, 222.588 98.883, 226.481 88.690 C 227.475 86.086, 228.111 83.786, 227.894 83.579 C 227.677 83.373, 224.125 84.184, 220 85.383" stroke="none" fill="black" fill-rule="evenodd"/>
</svg>